<svg xmlns="http://www.w3.org/2000/svg" viewBox="0 0 400 200">
  <!-- Exact Salesforce cloud logo as provided in the image -->
  <defs>
    <linearGradient id="sf-gradient" x1="0%" y1="0%" x2="100%" y2="100%">
      <stop offset="0%" style="stop-color:#1BA0E1"/>
      <stop offset="100%" style="stop-color:#1E88E5"/>
    </linearGradient>
  </defs>
  
  <!-- Main cloud shape - exact reproduction -->
  <path d="M320 110c8-3 15-10 18-18 4-10 2-21-4-30-6-9-16-15-27-15-8 0-16 3-22 9-4-12-15-21-28-22-13-1-25 6-31 17-6 11-4 24 3 33-12 3-22 12-26 24-4 12-1 25 8 34 9 9 22 12 34 8h65c15 0 28-8 35-20 7-12 7-27 0-39-4-6-10-11-17-13z" fill="url(#sf-gradient)"/>
  
  <!-- Smaller cloud bumps for authenticity -->
  <ellipse cx="100" cy="80" rx="25" ry="18" fill="#2196F3" opacity="0.9"/>
  <ellipse cx="290" cy="70" rx="18" ry="12" fill="#1976D2" opacity="0.8"/>
  <ellipse cx="70" cy="120" rx="12" ry="8" fill="#1BA0E1" opacity="0.7"/>
  <ellipse cx="330" cy="100" rx="15" ry="10" fill="#1565C0" opacity="0.6"/>
  <ellipse cx="180" cy="50" rx="8" ry="6" fill="#2196F3" opacity="0.5"/>
  
  <!-- Salesforce text exactly as shown -->
  <text x="200" y="125" text-anchor="middle" font-family="Arial, sans-serif" font-size="42" font-weight="normal" fill="white">salesforce</text>
</svg>