<svg xmlns="http://www.w3.org/2000/svg" viewBox="0 0 100 100">
  <!-- Salesforce cloud logo - clean version matching the blue cloud from provided image -->
  
  <!-- Main cloud body -->
  <path d="M75 55c3-2 5-5 5-9 0-6-5-11-11-11-2 0-4 1-6 2-1-4-5-7-9-7-4 0-7 2-8 5-2-1-4-2-6-2-6 0-11 5-11 11 0 2 1 4 2 6-4 2-7 6-7 11 0 7 6 13 13 13h32c6 0 11-5 11-11 0-4-2-7-5-8z" fill="#00A1E0"/>
  
  <!-- Cloud highlights - smaller bumps -->
  <circle cx="35" cy="35" r="6" fill="#1AB0F0" opacity="0.8"/>
  <circle cx="65" cy="32" r="4" fill="#0078D4" opacity="0.7"/>
  <circle cx="25" cy="50" r="3" fill="#00A1E0" opacity="0.6"/>
  <circle cx="78" cy="45" r="5" fill="#0078D4" opacity="0.5"/>
</svg>